<svg width="94" height="76" viewBox="0 0 94 76" fill="none" xmlns="http://www.w3.org/2000/svg">
<circle cx="59.3585" cy="34.34" r="34.34" fill="#45916A"/>
<path d="M35.0962 23.0865C35.5805 22.6083 36.3501 22.6242 36.8153 23.1221C37.2804 23.6199 37.2649 24.4111 36.7807 24.8893L27.7851 33.7728C27.3302 34.2221 26.6166 34.239 26.142 33.8118L21.2607 29.4179C20.7556 28.9631 20.7046 28.1735 21.147 27.6541C21.5893 27.1348 22.3574 27.0824 22.8626 27.5372L26.9048 31.1759L35.0962 23.0865Z" fill="#262626"/>
<path fill-rule="evenodd" clip-rule="evenodd" d="M13.8775 28.4279C13.8775 19.8574 20.6627 12.8827 29.001 12.8827C37.3378 12.8827 44.1222 19.8572 44.1222 28.4279C44.1222 37.0007 37.3375 43.9766 29.001 43.9766C20.663 43.9766 13.8775 37.0006 13.8775 28.4279ZM16.3072 28.4279C16.3072 35.6252 22.0005 41.4788 29.001 41.4788C36.0004 41.4788 41.6925 35.625 41.6925 28.4279C41.6925 21.2323 36 15.3805 29.001 15.3805C22.0008 15.3805 16.3072 21.2321 16.3072 28.4279Z" fill="#262626"/>
<path fill-rule="evenodd" clip-rule="evenodd" d="M38.71 0.676406C38.4084 0.0762562 37.6975 -0.168916 37.1049 0.122807L28.9514 4.1362L20.9279 0.126112C20.3408 -0.167295 19.6332 0.0682454 19.3248 0.659694L15.1037 8.75497L6.26394 10.3796C5.61854 10.4982 5.18087 11.1216 5.27459 11.7887L6.55799 20.9231L0.337936 27.5967C-0.112588 28.0801 -0.112653 28.8426 0.337788 29.326L6.51228 35.9531L5.35133 45.0696C5.26728 45.7296 5.70103 46.3415 6.33785 46.4613L13.7733 47.861V74.7501C13.7733 75.1767 13.985 75.5739 14.3348 75.8035C14.6845 76.0331 15.124 76.0635 15.5005 75.884L29.053 69.4237L42.6289 75.8844C43.0053 76.0635 43.4447 76.033 43.7943 75.8033C44.1438 75.5736 44.3554 75.1766 44.3554 74.7501V47.8166L51.6845 46.4621C52.3269 46.3433 52.7634 45.7245 52.6737 45.0599L51.4397 35.9263L57.6572 29.3314C58.1112 28.8499 58.1147 28.0859 57.6651 27.6L51.4111 20.8405L52.6729 11.7872C52.7655 11.1228 52.3312 10.5019 51.6892 10.3806L42.7372 8.68942L38.71 0.676406ZM16.9687 10.4694L20.9158 2.89959L28.4158 6.64806C28.7491 6.81465 29.1381 6.81584 29.4724 6.6513L37.0912 2.90111L40.8508 10.3817C41.0235 10.7253 41.3411 10.9673 41.7112 11.0372L50.1002 12.622L48.9205 21.0857C48.8678 21.4644 48.9866 21.8472 49.2431 22.1244L55.0988 28.4533L49.2809 34.6243C49.0203 34.9007 48.8982 35.285 48.9497 35.6662L50.1045 44.2142L41.8876 45.7328C41.5236 45.8001 41.2092 46.0341 41.0333 46.3686L37.0366 53.9686L29.5868 50.2222C29.254 50.0548 28.865 50.0526 28.5304 50.2162L20.9415 53.9269L16.9658 46.394C16.7904 46.0616 16.478 45.8287 16.1161 45.7606L7.9123 44.2164L8.99893 35.6835C9.04676 35.3079 8.92631 34.9303 8.67143 34.6567L2.89945 28.4616L8.7239 22.2124C8.9828 21.9346 9.10285 21.5497 9.04935 21.169L7.84928 12.6277L16.1111 11.1093C16.4771 11.042 16.7931 10.8063 16.9687 10.4694ZM38.6205 56.2131L41.9238 49.9315V72.7942L29.5633 66.9119C29.2391 66.7576 28.8653 66.7577 28.5412 66.9122L16.2049 72.7928V50.1939L19.354 56.1607C19.6623 56.7448 20.3611 56.9788 20.9448 56.6934L29.0452 52.7327L37.0168 56.7415C37.6027 57.0361 38.3103 56.803 38.6205 56.2131Z" fill="#262626"/>
</svg>
