<svg width="78" height="81" viewBox="0 0 78 81" fill="none" xmlns="http://www.w3.org/2000/svg">
<circle cx="35.4668" cy="45.9929" r="34.5" fill="#45916A"/>
<path fill-rule="evenodd" clip-rule="evenodd" d="M30.5322 53.2355C30.5367 51.3765 31.2646 49.5889 32.5558 48.2661C33.847 46.9433 35.5956 46.1936 37.4171 46.182C39.2386 46.1703 40.9836 46.8977 42.2684 48.2041C43.5531 49.5104 44.2723 51.2887 44.2678 53.1478C44.2633 55.0069 43.5354 56.7944 42.2442 58.1172C40.953 59.44 39.2044 60.1897 37.3829 60.2014C35.5615 60.213 33.8164 59.4856 32.5316 58.1793C31.2469 56.8729 30.5277 55.0946 30.5322 53.2355ZM33.0811 53.2193C33.0839 52.0501 33.5417 50.926 34.3537 50.0941C35.1656 49.2623 36.2653 48.7908 37.4107 48.7835C38.5562 48.7762 39.6536 49.2336 40.4615 50.0551C41.2695 50.8766 41.7218 51.995 41.7189 53.1641C41.7161 54.3332 41.2583 55.4573 40.4463 56.2892C39.6344 57.1211 38.5347 57.5925 37.3893 57.5998C36.2438 57.6071 35.1464 57.1497 34.3384 56.3282C33.5305 55.5067 33.0782 54.3884 33.0811 53.2193Z" fill="#262626"/>
<path fill-rule="evenodd" clip-rule="evenodd" d="M38.5723 72.9844C39.1178 72.9803 39.6473 72.7873 40.0742 72.4369C40.5011 72.0865 40.8 71.5996 40.922 71.0559L41.6034 68.0164C42.6804 67.6916 43.701 67.2457 44.6652 66.7019L47.2384 68.3447C47.6997 68.6394 48.2469 68.7643 48.79 68.6988C49.3331 68.6334 49.8399 68.3814 50.2271 67.9845L51.9476 66.2218C52.3344 65.8254 52.5788 65.3078 52.6409 64.7538C52.703 64.1998 52.579 63.6424 52.2892 63.173L50.67 60.5472C51.1992 59.5639 51.6294 58.5177 51.9436 57.4201L54.9189 56.7132C55.4517 56.5865 55.928 56.2792 56.2697 55.8416C56.6114 55.404 56.7983 54.8621 56.7996 54.3049L56.8057 51.8277C56.807 51.2704 56.6228 50.7309 56.2832 50.2977C55.9436 49.8644 55.4688 49.5632 54.9367 49.4433L51.9646 48.7744C51.6558 47.6808 51.2307 46.6401 50.7035 45.6606L52.3383 43.0198C52.6311 42.5464 52.7583 41.9867 52.6989 41.4329C52.6395 40.8791 52.3971 40.364 52.0116 39.9724L50.2968 38.2316C49.9118 37.8403 49.4067 37.5953 48.8645 37.5368C48.3223 37.4783 47.7751 37.6097 47.3126 37.9096L44.7285 39.5853C43.7698 39.0538 42.7484 38.6238 41.6759 38.3127L41.0092 35.2819C40.8898 34.7393 40.5928 34.2558 40.1671 33.9108C39.7413 33.5658 39.212 33.3798 38.6661 33.3833L36.239 33.3988C35.693 33.4023 35.1628 33.595 34.7354 33.9455C34.3079 34.2959 34.0086 34.7832 33.8865 35.3274L33.2051 38.3668C32.1281 38.6917 31.1075 39.1318 30.1433 39.6785L27.5673 38.0357C27.1063 37.7418 26.5597 37.6173 26.0172 37.6827C25.4746 37.7482 24.9684 37.9996 24.5814 38.3959L22.8609 40.1586C22.4741 40.555 22.2297 41.0726 22.1676 41.6266C22.1055 42.1805 22.2295 42.7379 22.5193 43.2074L24.1385 45.8274C23.6065 46.8136 23.1763 47.8627 22.8621 48.9603L19.8867 49.6672C19.354 49.7939 18.8777 50.1012 18.536 50.5388C18.1942 50.9764 18.0074 51.5183 18.0061 52.0755L18 54.5527C17.998 55.1105 18.1819 55.6506 18.5216 56.0845C18.8612 56.5183 19.3364 56.82 19.869 56.94L22.841 57.606C23.1499 58.7025 23.5722 59.7404 24.0994 60.7198L22.4673 63.3606C22.1745 63.834 22.0474 64.3937 22.1068 64.9475C22.1661 65.5013 22.4085 66.0164 22.7941 66.4081L24.506 68.1488C24.8913 68.5408 25.3968 68.7863 25.9397 68.8448C26.4825 68.9033 27.0303 68.7714 27.4931 68.4708L30.0743 66.7951C31.0429 67.3339 32.0675 67.7617 33.1298 68.0706L33.7993 71.1014C33.9187 71.644 34.2157 72.1275 34.6414 72.4725C35.0672 72.8175 35.5965 73.0035 36.1424 72.9999L38.5723 72.9844ZM44.103 64.198C42.7257 65.0817 41.1955 65.6903 39.5948 65.9885L38.5755 70.5274L36.1484 70.5429L35.1512 66.0169C33.2857 65.6936 31.5628 64.9559 30.0729 63.8988L26.2152 66.4007L24.5004 64.6599L26.9399 60.7132C25.8958 59.1966 25.1694 57.438 24.8455 55.5381L20.4073 54.5374L20.4133 52.0601L24.8565 51.0056C25.1823 49.1364 25.906 47.3595 26.9763 45.8006L24.5588 41.8849L26.2793 40.1223L30.1249 42.5749C31.6476 41.4781 33.3848 40.7338 35.2137 40.3947L36.233 35.8558L38.6601 35.8403L39.6573 40.3663C41.4839 40.6833 43.2165 41.4063 44.7328 42.4845L48.5905 39.9798L50.3053 41.7205L47.8658 45.6672C48.9281 47.2116 49.6431 48.9783 49.9602 50.8424L54.3984 51.843L54.3923 54.3203L49.9491 55.3777C49.6225 57.2449 48.8989 59.0197 47.8294 60.5769L50.2497 64.4983L48.5292 66.261L44.6836 63.8055L44.6836 63.8026C44.6777 63.8069 44.6717 63.8112 44.6658 63.8154C44.6227 63.8464 44.5795 63.8771 44.5361 63.9075C44.3935 64.0074 44.2491 64.1043 44.103 64.198Z" fill="#262626"/>
<path fill-rule="evenodd" clip-rule="evenodd" d="M58.6754 12.7365C56.8482 12.7384 55.0903 13.4811 53.7885 14.8007C52.4867 16.1203 51.7474 17.9087 51.7329 19.7726C51.7184 21.6365 52.43 23.4236 53.7115 24.7406C54.9931 26.0577 56.7397 26.7967 58.567 26.7948C60.3942 26.7928 62.152 26.0501 63.4539 24.7305C64.7556 23.411 65.495 21.6226 65.5095 19.7587C65.524 17.8948 64.8124 16.1077 63.5308 14.7906C62.2492 13.4735 60.5027 12.7345 58.6754 12.7365ZM55.6402 16.7005C56.4439 15.8859 57.5285 15.4279 58.6554 15.4266C59.7822 15.4254 60.8595 15.8811 61.6502 16.6937C62.4409 17.5064 62.8804 18.6095 62.8714 19.7606C62.8625 20.9118 62.4058 22.0161 61.6022 22.8308C60.7985 23.6454 59.7139 24.1034 58.587 24.1046C57.4602 24.1058 56.3829 23.6501 55.5922 22.8375C54.8015 22.0249 54.362 20.9217 54.3709 19.7706C54.3799 18.6195 54.8365 17.5151 55.6402 16.7005Z" fill="#262626"/>
<path fill-rule="evenodd" clip-rule="evenodd" d="M57.5703 0.00259232C57.0151 0.00315472 56.4751 0.19633 56.0388 0.550105C55.6026 0.903861 55.296 1.39723 55.1691 1.94915L54.481 4.94336C53.4234 5.25847 52.4196 5.68488 51.4696 6.21437L48.9389 4.58149C48.4717 4.28007 47.9165 4.15052 47.3644 4.21413C46.8124 4.27775 46.2965 4.53071 45.9012 4.93119L44.1788 6.6771C43.7837 7.07775 43.5327 7.60215 43.4666 8.16432C43.4006 8.72649 43.5235 9.29337 43.8154 9.77194L45.3986 12.3646C44.8729 13.331 44.4452 14.3586 44.129 15.4336L41.1913 16.1151C40.649 16.241 40.1633 16.5509 39.8138 16.9935C39.4643 17.4362 39.2717 17.9855 39.2673 18.5513L39.2481 21.0177C39.243 21.584 39.4269 22.1338 39.7697 22.5765C40.1126 23.0193 40.5941 23.3287 41.1352 23.4536L44.0616 24.1258C44.361 25.2026 44.77 26.2236 45.2805 27.1886L43.6568 29.7849C43.3569 30.2642 43.2248 30.8318 43.2821 31.3945C43.3394 31.9573 43.5827 32.4819 43.9725 32.8822L45.6678 34.6244C46.0573 35.025 46.57 35.2773 47.1218 35.3398C47.6736 35.4022 48.2312 35.271 48.7032 34.968L51.2567 33.3296C52.2051 33.8612 53.2079 34.2861 54.2477 34.5968L54.892 37.589C55.0103 38.1408 55.3094 38.6338 55.7404 38.9868C56.1714 39.3398 56.7086 39.5319 57.2639 39.5312L59.6833 39.5286C60.2381 39.5274 60.7775 39.3339 61.2132 38.9802C61.6488 38.6265 61.955 38.1335 62.0818 37.5821L62.7699 34.5879C63.8276 34.2726 64.8314 33.8407 65.7812 33.314L68.3091 34.9469C68.7766 35.249 69.3324 35.379 69.8851 35.3154C70.4378 35.2517 70.9542 34.9984 71.3496 34.5972L73.0721 32.8513C73.4672 32.4506 73.7182 31.9262 73.7842 31.364C73.8503 30.8019 73.7274 30.235 73.4355 29.7565L71.8522 27.158C72.3752 26.1945 72.8028 25.1697 73.119 24.0948L76.0567 23.4132C76.599 23.2873 77.0847 22.9775 77.4342 22.5348C77.7837 22.0922 77.9764 21.5429 77.9807 20.9771L77.9999 18.5106C78.0044 17.9448 77.8202 17.3957 77.4774 16.9536C77.1346 16.5114 76.6535 16.2024 76.1129 16.0777L73.1864 15.4026C72.887 14.3285 72.4753 13.3048 71.9647 12.3398L73.5912 9.74344C73.8911 9.26419 74.0233 8.69659 73.966 8.13385C73.9087 7.57109 73.6653 7.04641 73.2755 6.64618L71.5774 4.90394C71.1881 4.50407 70.6759 4.25216 70.1248 4.18972C69.5736 4.12728 69.0165 4.25806 68.5449 4.56032L65.9885 6.19882C65.0496 5.67426 64.05 5.24733 63.0003 4.93445L62.3589 1.94226C62.2405 1.39045 61.9415 0.897494 61.5105 0.54446C61.0795 0.191407 60.5422 -0.000627197 59.987 1.539e-06L57.5703 0.00259232ZM69.6256 32.773L65.8556 30.3375C65.8514 30.3323 65.8461 30.3279 65.8399 30.3247C65.8232 30.316 65.803 30.3174 65.7877 30.3284C64.2722 31.4102 62.5454 32.141 60.7295 32.4694C60.7098 32.4729 60.6941 32.4879 60.6896 32.5074L59.6596 36.9824L57.3233 36.9849L56.363 32.5128C56.3587 32.493 56.3429 32.4777 56.3229 32.4741C54.4747 32.1436 52.7702 31.4031 51.2982 30.3469C51.2815 30.335 51.2592 30.3344 51.2419 30.3455L47.4221 32.7939L45.7799 31.1091L48.209 27.2256C48.2195 27.2088 48.2191 27.1874 48.208 27.1711C47.1805 25.6615 46.4693 23.9135 46.1581 22.0273C46.1548 22.0073 46.1398 21.9913 46.12 21.9867L41.7455 20.9759L41.7641 18.5889L46.1551 17.5714C46.1746 17.5668 46.1896 17.5512 46.1931 17.5315C46.5262 15.6792 47.2533 13.9205 48.3232 12.38C48.3344 12.3638 48.3351 12.3424 48.3248 12.3255L45.9589 8.44732L47.6253 6.7582L51.4069 9.19842C51.4241 9.20956 51.4464 9.20905 51.4632 9.19714C52.9791 8.11737 54.7058 7.38847 56.5213 7.06186C56.541 7.05831 56.5567 7.04336 56.5612 7.02386L57.5913 2.54882L59.9275 2.54631L60.8878 7.0184C60.8921 7.03824 60.908 7.05354 60.928 7.05712C62.7376 7.38101 64.4519 8.10715 65.9498 9.18429C65.9665 9.19629 65.9888 9.19689 66.0061 9.18578L69.8259 6.73443L71.4681 8.4193L69.039 12.3028C69.0285 12.3195 69.0289 12.3409 69.0401 12.3573C70.0855 13.8945 70.7853 15.6505 71.0899 17.5011C71.0932 17.5211 71.1082 17.5371 71.128 17.5417L75.5025 18.5525L75.484 20.9395L71.0928 21.9599C71.0734 21.9644 71.0585 21.9801 71.0549 21.9997C70.7211 23.8501 69.994 25.6067 68.9249 27.1455C68.9136 27.1617 68.913 27.1831 68.9233 27.2L71.292 31.0839L69.6256 32.773Z" fill="#262626"/>
</svg>
