<svg width="83" height="95" viewBox="0 0 83 95" fill="none" xmlns="http://www.w3.org/2000/svg">
<circle cx="34.5" cy="60.5" r="34.5" fill="#45916A"/>
<path fill-rule="evenodd" clip-rule="evenodd" d="M16 1.3C16 0.58203 16.5805 0 17.2967 0H75.6023C76.3185 0 76.899 0.58203 76.899 1.3V20.0033C80.0974 23.3743 82.0626 27.9377 82.0626 32.959C82.0626 38.9755 79.2425 44.3315 74.86 47.7709L83 65.1339L76.9071 67.2733V76.705C76.9071 77.4229 76.3266 78.005 75.6104 78.005H17.2967C16.5805 78.005 16 77.4229 16 76.705V1.3ZM74.3137 68.1839L70.2092 69.6251L66.1438 51.5456C65.2192 51.6862 64.2729 51.759 63.3105 51.759C62.1828 51.759 61.0775 51.659 60.0031 51.4673L55.964 69.6424L43.289 65.0324L45.5502 60.0527H30.9713V57.4527H46.7308L51.2977 47.3954C49.0517 45.515 47.2507 43.1169 46.0773 40.3823H30.9713V37.7823H45.1816C44.7748 36.242 44.5584 34.6251 44.5584 32.959C44.5584 28.3163 46.2379 24.0663 49.0186 20.7873H30.9713V18.1873H51.7097C54.9011 15.665 58.9319 14.159 63.3105 14.159C67.4172 14.159 71.2169 15.4835 74.3056 17.7283V2.6H18.5934V75.405H74.3137V68.1839ZM53.4422 48.948L46.8125 63.5481L54.0744 66.1894L57.4868 50.8343C56.0547 50.3657 54.6988 49.7291 53.4422 48.948ZM68.6747 50.9781L72.099 66.2067L79.4305 63.6324L72.6852 49.2443C71.433 49.9703 70.0889 50.5555 68.6747 50.9781ZM63.3105 16.759C59.3882 16.759 55.7954 18.1583 52.9966 20.4876C49.4236 23.4612 47.1517 27.9435 47.1517 32.959C47.1517 34.9555 47.5114 36.8648 48.1681 38.6274C49.2659 41.5734 51.196 44.1153 53.6732 45.9637C55.3429 47.2095 57.2594 48.1391 59.3351 48.6654C60.6056 48.9875 61.9371 49.159 63.3105 49.159C64.5281 49.159 65.7129 49.0242 66.8512 48.7691C68.9075 48.3084 70.8165 47.4544 72.4957 46.2891C76.7118 43.3631 79.4692 38.4837 79.4692 32.959C79.4692 28.4611 77.6425 24.3934 74.6892 21.4567C71.7675 18.5514 67.749 16.759 63.3105 16.759ZM63.0654 20.46L66.8844 27.5858L74.5532 28.9114L69.1846 34.6119L70.3218 42.7787L63.215 39.0833L56.0624 42.6287L57.358 34.6495L51.4781 28.8608L59.5143 27.5802L63.0654 20.46ZM63.1482 26.1077L61.2378 29.9382L56.9654 30.619L60.1335 33.738L59.4321 38.058L63.2431 36.1689L67.0592 38.1533L66.4439 33.7348L69.3489 30.6501L65.1982 29.9327L63.1482 26.1077Z" fill="#262626"/>
</svg>
