<svg width="101" height="86" viewBox="0 0 101 86" fill="none" xmlns="http://www.w3.org/2000/svg">
<circle cx="66.3341" cy="51.361" r="34.34" fill="#45916A"/>
<path d="M73.9045 35.6775H63.7109V38.2258H73.9045V35.6775Z" fill="#262626"/>
<path d="M63.7109 30.5807H73.9045V33.1291H63.7109V30.5807Z" fill="#262626"/>
<path fill-rule="evenodd" clip-rule="evenodd" d="M15.2916 29.3065C15.2916 26.4955 13.0057 24.2097 10.1948 24.2097C7.38386 24.2097 5.09802 26.4955 5.09802 29.3065C5.09802 32.1174 7.38386 34.4032 10.1948 34.4032C13.0057 34.4032 15.2916 32.1174 15.2916 29.3065ZM7.64641 29.3065C7.64641 27.901 8.78933 26.7581 10.1948 26.7581C11.6003 26.7581 12.7432 27.901 12.7432 29.3065C12.7432 30.7119 11.6003 31.8549 10.1948 31.8549C8.78933 31.8549 7.64641 30.7119 7.64641 29.3065Z" fill="#262626"/>
<path d="M38.2271 64.9839H35.6787V67.5323H38.2271V64.9839Z" fill="#262626"/>
<path d="M52.2432 64.9839H54.7916V67.5323H52.2432V64.9839Z" fill="#262626"/>
<path d="M72.6303 64.9839H70.0819V67.5323H72.6303V64.9839Z" fill="#262626"/>
<path fill-rule="evenodd" clip-rule="evenodd" d="M39.5013 43.3226H75.1787C77.286 43.3226 79.0013 41.6073 79.0013 39.5V3.82258C79.0013 1.71531 77.286 0 75.1787 0H39.5013C37.394 0 35.6787 1.71531 35.6787 3.82258V22.1161C34.8723 21.8305 34.0169 21.6613 33.1303 21.6613C30.8737 21.6613 28.8492 22.6499 27.4474 24.2097H19.0084C17.2427 21.1679 13.9576 19.1129 10.1936 19.1129C4.57291 19.1129 0 23.6858 0 29.3065C0 33.4028 2.43515 36.9336 5.92861 38.5531L7.52135 53.6841C6.11464 54.0972 5.01154 55.2924 4.79627 56.7987L2.71762 71.3549H2.54963C1.14416 71.3549 0.00124433 72.4978 0.00124433 73.9032V76.4516C0.00124433 77.8571 1.14416 79 2.54963 79H28.0335C29.439 79 30.5819 77.8571 30.5819 76.4516V73.9032H71.3561C75.5725 73.9032 79.0013 70.4745 79.0013 66.2581C79.0013 62.0417 75.5725 58.6129 71.3561 58.6129H26.0444L25.7844 56.7974C25.5517 55.1661 24.285 53.8857 22.7103 53.5852L18.7577 34.8151C18.8441 34.6795 18.9269 34.542 19.0071 34.4032H27.4462C28.8467 35.963 30.8712 36.9516 33.129 36.9516C34.0156 36.9516 34.8711 36.7824 35.6774 36.4968V39.5C35.6787 41.6073 37.394 43.3226 39.5013 43.3226ZM38.2271 28.0323H56.0658L56.0683 30.5807H38.2271V28.0323ZM50.969 2.54839H63.7109V10.1936H50.969V2.54839ZM39.5013 2.54839H48.4206V12.7419H66.2593V2.54839H75.1787C75.8824 2.54839 76.4529 3.11954 76.4529 3.82258V39.5C76.4529 40.2037 75.8824 40.7742 75.1787 40.7742H39.5013C38.7982 40.7742 38.2271 40.2037 38.2271 39.5V35.0011C38.8219 34.4698 39.3264 33.8352 39.7358 33.129H56.0658C57.4712 33.129 58.6142 31.9861 58.6142 30.5807V28.0323C58.6142 26.6268 57.4712 25.4839 56.0658 25.4839H39.7358C39.3264 24.7765 38.8219 24.145 38.2271 23.6124V3.82258C38.2271 3.11954 38.7982 2.54839 39.5013 2.54839ZM2.54963 29.3065C2.54963 25.09 5.97838 21.6613 10.1948 21.6613C14.4112 21.6613 17.84 25.09 17.84 29.3065C17.84 33.5229 14.4112 36.9516 10.1948 36.9516C5.97838 36.9516 2.54963 33.5229 2.54963 29.3065ZM10.1948 39.5C12.6436 39.5 14.894 38.6308 16.6535 37.1849L20.0928 53.5161H10.0673L8.57654 39.3588C9.10538 39.444 9.64294 39.5 10.1948 39.5ZM28.036 76.4516H2.54963V73.9032H28.0335L28.036 76.4516ZM31.8561 66.2581C31.8561 63.4471 34.1419 61.1613 36.9529 61.1613C39.7638 61.1613 42.0496 63.4471 42.0496 66.2581C42.0496 69.069 39.7638 71.3549 36.9529 71.3549C34.1419 71.3549 31.8561 69.069 31.8561 66.2581ZM58.6142 66.2581C58.6142 69.069 56.3283 71.3549 53.5174 71.3549C50.7064 71.3549 48.4206 69.069 48.4206 66.2581C48.4206 63.4471 50.7064 61.1613 53.5174 61.1613C56.3283 61.1613 58.6142 63.4471 58.6142 66.2581ZM59.2002 61.1613H65.6745C64.4575 62.5158 63.7109 64.2983 63.7109 66.2581C63.7109 68.2179 64.4575 70.0004 65.6732 71.3549H59.2002C60.416 70.0004 61.1626 68.2179 61.1626 66.2581C61.1626 64.2983 60.416 62.5158 59.2002 61.1613ZM47.8345 71.3549H42.6357C43.8514 70.0004 44.598 68.2179 44.598 66.2581C44.598 64.2983 43.8514 62.5158 42.6357 61.1613H47.8358C46.6188 62.5158 45.8722 64.2983 45.8722 66.2581C45.8722 68.2179 46.6188 70.0004 47.8345 71.3549ZM76.4529 66.2581C76.4529 69.069 74.167 71.3549 71.3561 71.3549C68.5452 71.3549 66.2593 69.069 66.2593 66.2581C66.2593 63.4471 68.5452 61.1613 71.3561 61.1613C74.167 61.1613 76.4529 63.4471 76.4529 66.2581ZM31.27 61.1613C30.0543 62.5158 29.3077 64.2983 29.3077 66.2581C29.3077 68.2179 30.0543 70.0004 31.27 71.3549H27.8655L26.409 61.1613H31.27ZM25.2904 71.3549H5.29276L5.65735 68.8065H21.6625V66.2581H6.02193L7.32164 57.1577C7.40936 56.5349 7.95251 56.0645 8.58152 56.0645H22.0004C22.6294 56.0645 23.1725 56.5349 23.2603 57.1577L25.2904 71.3549ZM20.053 31.8548C20.2645 31.0379 20.3883 30.1881 20.3883 29.3065C20.3883 28.4249 20.2645 27.575 20.053 26.7581H25.9312C25.6481 27.5569 25.4851 28.4118 25.4851 29.3065C25.4851 30.2011 25.6481 31.056 25.9312 31.8548H20.053ZM28.0335 29.3065C28.0335 26.4955 30.3193 24.2097 33.1303 24.2097C34.5868 24.2097 35.9362 24.8368 36.8869 25.8752C36.164 26.325 35.6787 27.1202 35.6787 28.0323V30.5807C35.6787 31.4927 36.164 32.2879 36.8869 32.7377C35.9375 33.7761 34.5868 34.4032 33.1303 34.4032C30.3193 34.4032 28.0335 32.1174 28.0335 29.3065Z" fill="#262626"/>
</svg>
