<svg width="102" height="79" viewBox="0 0 102 79" fill="none" xmlns="http://www.w3.org/2000/svg">
<circle cx="67.5" cy="44.5" r="34.5" fill="#45916A"/>
<path d="M79.7784 25.8945C80.9219 25.8945 81.8488 24.9696 81.8488 23.8289C81.8488 22.688 80.9219 21.7632 79.7784 21.7632C78.6349 21.7632 77.708 22.688 77.708 23.8289C77.708 24.9696 78.6349 25.8945 79.7784 25.8945Z" fill="#262626"/>
<path fill-rule="evenodd" clip-rule="evenodd" d="M69.7599 2.17556C71.0617 3.4743 83.3766 15.3622 86.5807 18.8586C89.6845 22.2553 89.7843 25.7518 86.9811 28.6488L80.3729 35.1422L69.1595 45.9313L72.8637 49.3278C74.2654 50.7265 74.766 52.6245 74.2654 54.4227C73.665 56.4207 72.063 58.0192 70.1607 58.5187C69.9486 58.5716 69.7085 58.6245 69.47 58.6626C69.2578 58.6963 69.0471 58.7184 68.8589 58.7184H68.3583C68.4585 60.2169 67.8576 61.7154 66.7562 62.8142C65.6553 63.8131 64.2532 64.5126 62.7513 64.5126H62.0508C62.151 65.3116 62.0508 65.9111 61.9505 66.4106C61.4499 68.3086 59.8479 69.8071 57.8454 70.3066C57.2446 70.4066 56.744 70.5066 56.2434 70.5066H55.9432C56.2434 72.3046 55.5428 74.1028 54.3412 75.3015C53.3399 76.3005 51.9383 77 50.4365 77C49.1351 77 47.8332 76.5005 46.7318 75.4015L38.3216 67.0101C36.92 68.4086 35.2177 70.2068 34.1168 71.3056C33.3155 72.1048 32.2141 72.5045 31.1131 72.5045C30.6854 72.5045 30.3304 72.4316 29.9242 72.348L29.711 72.3046C27.5086 71.7053 25.5062 69.7073 25.0056 67.6094C24.9054 67.2099 24.9054 66.8101 24.9054 66.4106C24.4048 66.4106 24.0044 66.3106 23.604 66.2109C21.4011 65.5116 19.4989 63.4136 18.9983 61.1159C18.898 60.8162 18.898 60.4167 18.898 60.0172C17.3962 59.9172 15.7942 59.1179 14.6927 57.9192C13.5918 56.8202 12.9909 55.5217 12.8907 54.3228C12.7284 54.3228 12.5363 54.3228 12.3466 54.3069C12.1862 54.2935 12.0274 54.2688 11.8895 54.223C9.68662 53.7235 7.58444 51.6255 6.98361 49.4278C6.483 47.7296 6.88339 46.2311 7.98483 45.1321C8.58566 44.6326 10.5881 42.5349 12.0899 41.0364L0.375458 29.348C-0.125153 28.8485 -0.125153 28.0495 0.375458 27.55C0.876068 27.0505 1.67685 27.0505 2.17746 27.55L14.9934 40.1372L48.6345 73.7033C50.0361 75.002 51.6382 74.6023 52.6394 73.6033C53.6406 72.6043 54.1412 70.8061 52.3387 69.0081C50.8608 67.5335 49.3052 65.9553 47.7775 64.4053C46.3035 62.9103 44.8555 61.4413 43.5282 60.1169L41.4255 58.0192C40.9249 57.5197 40.9249 56.7205 41.4255 56.221C41.9261 55.7215 42.7269 55.7215 43.2275 56.221L45.3302 58.3187C48.0337 61.0162 51.2373 64.3126 54.1412 67.2099C55.3424 68.4086 56.744 68.1088 57.2446 68.0091C58.4463 67.7094 59.247 66.8101 59.5477 65.9111C59.8479 65.0121 59.4475 63.9131 58.346 62.8142C55.843 60.3167 50.3363 54.8222 47.5331 51.9253C47.0324 51.4258 47.0324 50.6265 47.5331 50.127C48.0337 49.6275 48.8344 49.6275 49.3351 50.127C52.2385 53.0243 57.6455 58.5187 60.1485 61.0162C60.9493 61.8152 61.8503 62.2149 62.8515 62.2149C63.6528 62.2149 64.4536 61.8152 65.0544 61.2159C65.9554 60.2169 66.456 58.6185 64.9542 57.12C63.8767 56.0446 61.9437 54.1379 59.8845 52.1062C57.5433 49.7968 55.0383 47.3259 53.4402 45.7316C52.9396 45.2321 52.9396 44.4329 53.4402 43.9334C53.9408 43.4339 54.7416 43.4339 55.2422 43.9334L66.7562 55.4217C67.6577 56.3207 68.6589 56.7205 69.6601 56.4207C70.6614 56.121 71.5624 55.222 71.8625 54.123C72.063 53.5238 72.063 52.5248 71.162 51.6255L66.456 46.8303L42.7269 22.9546L32.7147 22.0556L32.7049 22.1066C32.0997 25.333 30.6712 32.9413 22.9029 32.345C19.8993 32.0455 14.6927 29.9475 14.6927 23.1543V22.8546C14.8961 21.9922 15.1772 20.6149 15.4568 19.2715C15.7277 17.9694 15.9975 16.6992 16.1946 15.9617C17.096 12.5652 22.1021 3.0748 33.6162 4.37329L54.7416 8.06975C55.4426 7.37026 56.3436 6.57126 57.1449 5.67203C58.5465 4.17354 59.9481 2.77505 60.9493 1.87582C63.953 -0.721408 66.7562 -0.621656 69.7599 2.17556ZM9.88706 47.0303C9.68662 47.1301 9.18601 47.6296 9.48666 48.7286C9.88706 50.0273 11.2887 51.4258 12.5905 51.8253C13.0907 51.9362 13.4368 51.8933 13.6798 51.7819C13.8748 51.6926 14.0034 51.5592 14.0924 51.4258C14.6135 50.8541 15.3512 50.0929 16.1222 49.2973C16.833 48.5639 17.5727 47.801 18.197 47.1301L13.9922 42.9344L9.88706 47.0303ZM19.9995 49.0283C18.5979 50.3268 16.8956 52.125 15.8944 53.224C14.7929 54.3228 16.2948 55.9212 16.5954 56.221C17.6964 57.3197 19.4989 58.0192 20.2997 57.3197L24.3045 53.3238L19.9995 49.0283ZM21.7013 60.7164C22.0019 62.1149 23.2031 63.5136 24.505 63.9131C25.2055 64.2129 25.8064 64.0131 26.5074 63.5136C27.6089 62.4147 29.0105 61.1159 30.1119 59.9172C30.1618 59.8172 30.2371 59.7423 30.3124 59.6672C30.3871 59.5923 30.4624 59.5174 30.5123 59.4177L26.2068 55.122L25.2055 56.121C24.4272 56.9683 23.5487 57.8158 22.8531 58.487C22.5646 58.7653 22.3075 59.0131 22.1021 59.2179C21.7013 59.5177 21.6015 60.0172 21.7013 60.7164ZM30.5123 70.0071C31.2129 70.2068 31.8137 70.1068 32.3143 69.6073C33.4157 68.6083 35.118 66.7104 36.5196 65.5116L32.3143 61.3157L31.9139 61.7154C31.2935 62.3342 30.6467 63.0063 30.0004 63.6629C29.3952 64.2783 28.7905 64.8799 28.2092 65.4116C27.6089 65.9111 27.4084 66.5106 27.6089 67.2099C27.909 68.4086 29.2104 69.6073 30.5123 70.0071ZM31.8137 19.2584L43.428 20.3571C43.7281 20.4571 43.9286 20.5571 44.2287 20.7569L67.5575 43.9334L77.7696 34.0435L54.6418 10.667L33.3155 6.87076C23.8039 5.77202 19.4989 13.6639 18.7978 16.4612C18.7069 16.8846 18.5793 17.5001 18.4346 18.2028C18.1007 19.821 17.6754 21.9005 17.3962 23.1543C17.4964 28.9485 22.2019 29.548 23.2031 29.6478C28.0093 29.9475 29.4109 25.8516 30.2116 21.3561C30.3119 20.8566 30.3119 20.5571 30.4121 20.2574C30.6125 19.6579 31.2129 19.1584 31.8137 19.2584ZM79.4719 32.345L85.1791 26.7508C86.28 25.5521 87.4817 23.7538 84.6784 20.6569C82.2399 17.9957 74.524 10.5316 70.4023 6.54468C69.1082 5.29301 68.1686 4.38402 67.8576 4.07379C65.6553 1.97581 64.3534 2.37531 62.6516 3.8738C61.7501 4.67304 60.3485 6.17152 58.9469 7.57025L56.9444 9.56823L79.4719 32.345Z" fill="#262626"/>
</svg>
