<svg width="96" height="83" viewBox="0 0 96 83" fill="none" xmlns="http://www.w3.org/2000/svg">
<circle cx="61.5" cy="34.5" r="34.5" fill="#45916A"/>
<path fill-rule="evenodd" clip-rule="evenodd" d="M45.6785 9.61376C27.4197 9.61376 12.618 24.5565 12.618 42.9894V51.4938C12.618 52.2156 12.0384 52.8007 11.3234 52.8007H5.67165C4.12502 52.8007 2.87501 51.8766 2.06833 50.8024C1.25582 49.7204 0.745117 48.3069 0.745117 46.9331V37.0825C0.745117 35.2279 2.20747 32.5384 5.22605 31.4212C5.89732 31.1728 6.64099 31.5207 6.88708 32.1984C7.13318 32.876 6.78852 33.6268 6.11725 33.8752C4.06703 34.6341 3.3342 36.3788 3.3342 37.0825V46.9331C3.3342 47.6911 3.63188 48.558 4.13156 49.2234C4.63707 49.8966 5.20306 50.187 5.67165 50.187H10.0289V42.9894C10.0289 23.113 25.9898 7 45.6785 7C49.507 7 53.1969 7.60969 56.6567 8.73912C70.9722 13.4122 81.3282 26.9782 81.3282 42.9894C81.3282 45.4532 81.0827 47.8603 80.6149 50.1868H85.8186C86.2872 50.1868 86.8532 49.8965 87.3587 49.2233C87.8584 48.5579 88.156 47.691 88.156 46.933V37.0824C88.156 36.3787 87.4232 34.634 85.373 33.8751C84.7017 33.6267 84.357 32.8759 84.6031 32.1983C84.8493 31.5206 85.5929 31.1727 86.2642 31.4211C89.2828 32.5383 90.7451 35.2278 90.7451 37.0824V46.933C90.7451 48.3068 90.2344 49.7203 89.4219 50.8023C88.6152 51.8765 87.3652 52.8006 85.8186 52.8006H79.9871C76.6541 64.7016 67.4124 74.0944 55.6618 77.5483C55.5822 77.5717 55.5022 77.587 55.4226 77.5947C55.2067 80.6163 52.7101 83 49.6621 83H41.6957C38.5059 83 35.92 80.3895 35.92 77.1693C35.92 73.9491 38.5059 71.3386 41.6957 71.3386H49.6621C52.0969 71.3386 54.1798 72.8596 55.0294 75.0117C66.18 71.6987 74.8831 62.608 77.738 51.1743C78.3916 48.5567 78.7391 45.815 78.7391 42.9894C78.7391 28.4908 69.5807 16.1485 56.7825 11.5425C52.8768 17.2223 47.3748 20.8929 41.8789 23.0396C36.1276 25.2859 30.2898 25.9006 26.1151 25.3509C25.4062 25.2575 24.9064 24.6016 24.9989 23.8859C25.0914 23.1702 25.7411 22.6657 26.45 22.7591C30.1487 23.2461 35.5505 22.7088 40.9446 20.6019C45.8444 18.6881 50.6604 15.5102 54.1762 10.7262C51.4658 10.0007 48.6178 9.61376 45.6785 9.61376ZM38.5091 77.1693C38.5091 75.3927 39.9358 73.9524 41.6957 73.9524H49.6621C51.4219 73.9524 52.8486 75.3927 52.8486 77.1693C52.8486 78.946 51.4219 80.3862 49.6621 80.3862H41.6957C39.9358 80.3862 38.5091 78.946 38.5091 77.1693Z" fill="#262626"/>
<path d="M33.9475 34.5878C32.0277 34.7429 30.3486 35.8209 29.6564 37.1714C29.3278 37.8124 28.5467 38.0632 27.9117 37.7315C27.2767 37.3998 27.0283 36.6112 27.3569 35.9702C28.5327 33.6764 31.1003 32.1957 33.741 31.9824C36.4559 31.7631 39.3834 32.867 41.2253 35.8853C41.6003 36.4998 41.4109 37.3049 40.8021 37.6835C40.1934 38.062 39.396 37.8708 39.021 37.2563C37.7399 35.157 35.7931 34.4388 33.9475 34.5878Z" fill="#262626"/>
<path d="M57.0111 34.5879C55.0913 34.7429 53.4122 35.821 52.72 37.1715C52.3914 37.8125 51.6103 38.0632 50.9753 37.7315C50.3403 37.3998 50.0919 36.6113 50.4205 35.9702C51.5963 33.6764 54.1639 32.1957 56.8046 31.9824C59.5195 31.7632 62.447 32.8671 64.2889 35.8854C64.6639 36.4999 64.4744 37.3049 63.8657 37.6835C63.257 38.0621 62.4596 37.8708 62.0845 37.2563C60.8034 35.1571 58.8567 34.4388 57.0111 34.5879Z" fill="#262626"/>
<path d="M39.3588 56.1291C39.9938 55.7974 40.7749 56.0482 41.1035 56.6892C41.7957 58.0397 43.4748 59.1177 45.3946 59.2728C47.2402 59.4218 49.187 58.7036 50.4681 56.6043C50.8431 55.9898 51.6405 55.7986 52.2493 56.1771C52.858 56.5557 53.0474 57.3608 52.6724 57.9753C50.8305 60.9936 47.903 62.0975 45.1881 61.8782C42.5474 61.6649 39.9798 60.1842 38.804 57.8904C38.4754 57.2494 38.7238 56.4608 39.3588 56.1291Z" fill="#262626"/>
<path d="M23.894 59.8042C24.3876 60.3264 24.3684 61.1537 23.8511 61.6519L11.6579 73.3976C11.1766 73.8613 10.4256 73.8812 9.92091 73.4437L2.87192 67.3336C2.32948 66.8634 2.26731 66.0383 2.73306 65.4907C3.19881 64.9431 4.0161 64.8803 4.55854 65.3505L10.7184 70.6899L22.0638 59.7609C22.581 59.2627 23.4005 59.2821 23.894 59.8042Z" fill="#262626"/>
</svg>
