<svg width="17" height="30" viewBox="0 0 17 30" fill="none" xmlns="http://www.w3.org/2000/svg">
<path d="M2.41243 29.9961C1.84975 29.9971 1.30445 29.8231 0.871186 29.5044C0.627336 29.3249 0.425767 29.1044 0.27802 28.8557C0.130272 28.6069 0.0392518 28.3347 0.0101708 28.0547C-0.0189102 27.7746 0.0145204 27.4922 0.108547 27.2237C0.202573 26.9551 0.355347 26.7057 0.558121 26.4896L11.3468 15.0293L0.943433 3.54764C0.743395 3.32894 0.59401 3.07729 0.503868 2.80716C0.413725 2.53703 0.384601 2.25375 0.418169 1.9736C0.451737 1.69344 0.547335 1.42194 0.699469 1.1747C0.851604 0.927454 1.05728 0.709341 1.30466 0.532898C1.55383 0.338252 1.84562 0.191433 2.16172 0.101655C2.47782 0.0118778 2.81142 -0.018919 3.14157 0.0111961C3.47171 0.0413113 3.79128 0.131689 4.08022 0.276657C4.36916 0.421625 4.62123 0.618054 4.82062 0.853616L16.4522 13.6823C16.8064 14.0649 17 14.5448 17 15.04C17 15.5353 16.8064 16.0151 16.4522 16.3977L4.41122 29.2264C4.16964 29.4852 3.86276 29.6897 3.51547 29.8234C3.16819 29.9572 2.79029 30.0163 2.41243 29.9961Z" fill="white"/>
</svg>
