<svg width="19" height="18" viewBox="0 0 19 18" fill="none" xmlns="http://www.w3.org/2000/svg">
<path d="M4.30213 18C3.48621 18 2.74446 17.7032 2.07689 17.1097C1.43404 16.4903 0.927184 15.6903 0.55631 14.7097C0.185437 13.729 0 12.6839 0 11.5742C0 9.76774 0.309061 8.07742 0.927184 6.50322C1.54531 4.90322 2.31178 3.54839 3.2266 2.43871C4.14142 1.30323 5.01916 0.490322 5.8598 0H5.89689L7.3433 1.35484V1.97419C6.72517 2.56774 6.14414 3.41935 5.60019 4.52903C5.08097 5.63871 4.82136 7.00645 4.82136 8.63226C4.82136 9.43226 4.93262 10.0903 5.15514 10.6065C5.37767 11.1226 5.69909 11.6645 6.11941 12.2323C6.49029 12.7484 6.76226 13.2129 6.93533 13.6258C7.10841 14.0129 7.19495 14.5032 7.19495 15.0968C7.19495 15.9226 6.91061 16.6194 6.34194 17.1871C5.79799 17.729 5.11805 18 4.30213 18ZM14.9833 18C14.1674 18 13.4256 17.7032 12.758 17.1097C12.1152 16.4903 11.6083 15.6903 11.2375 14.7097C10.8666 13.729 10.6812 12.6839 10.6812 11.5742C10.6812 9.76774 10.9902 8.07742 11.6083 6.50322C12.2265 4.90322 12.9929 3.54839 13.9078 2.43871C14.8226 1.30323 15.7003 0.490322 16.541 0H16.578L18.0245 1.35484V1.97419C17.4063 2.56774 16.8253 3.43226 16.2813 4.56774C15.7374 5.67742 15.4654 7.03226 15.4654 8.63226C15.4654 9.43226 15.5767 10.0903 15.7992 10.6065C16.0217 11.1226 16.3432 11.6645 16.7635 12.2323C17.1344 12.7484 17.4063 13.2129 17.5794 13.6258C17.7525 14.0129 17.839 14.5032 17.839 15.0968C17.839 15.9226 17.567 16.6194 17.0231 17.1871C16.4791 17.729 15.7992 18 14.9833 18Z" fill="white"/>
</svg>
