<svg width="20" height="20" viewBox="0 0 20 20" fill="none" xmlns="http://www.w3.org/2000/svg">
<path d="M10.093 0C11.3856 0 12.6251 0.222519 13.8114 0.667558C15.0155 1.09479 16.0779 1.74455 16.9987 2.61682C17.9371 3.4713 18.672 4.53049 19.2032 5.79439C19.7344 7.0583 20 8.51802 20 10.1736C20 10.4762 19.9823 10.8856 19.9469 11.4019C19.9115 11.9181 19.8229 12.47 19.6813 13.0574C19.5396 13.6449 19.3183 14.2056 19.0173 14.7397C18.7162 15.2559 18.309 15.6831 17.7955 16.0214C17.2997 16.3596 16.6711 16.5287 15.9097 16.5287C15.2722 16.5287 14.7764 16.413 14.4223 16.1816C14.0859 15.968 13.838 15.692 13.6786 15.3538C13.5193 15.0156 13.4219 14.6773 13.3865 14.3391C12.8375 14.891 12.1647 15.336 11.3679 15.6742C10.5888 15.9947 9.75653 16.1549 8.87118 16.1549C7.56087 16.1549 6.55157 15.8077 5.84329 15.1135C5.15272 14.4192 4.80744 13.5202 4.80744 12.4166C4.80744 11.4375 5.04648 10.6631 5.52457 10.0935C6.02036 9.52381 6.64896 9.12327 7.41036 8.89186C8.17176 8.64263 8.95972 8.51802 9.77424 8.51802C10.4825 8.51802 11.0934 8.58923 11.6069 8.73164C12.1204 8.87405 12.51 8.99866 12.7756 9.10547C12.7756 8.12639 12.5719 7.33422 12.1647 6.72897C11.7574 6.12372 10.9517 5.82109 9.74768 5.82109C9.02169 5.82109 8.35768 5.9279 7.75564 6.14152C7.15361 6.35514 6.64011 6.63996 6.21514 6.99599L5.52457 5.10013C6.8703 4.21006 8.39309 3.76502 10.093 3.76502C11.2439 3.76502 12.1381 3.94304 12.7756 4.29907C13.4307 4.63729 13.9088 5.09123 14.2098 5.66088C14.5108 6.21273 14.6968 6.81798 14.7676 7.47663C14.8561 8.11749 14.9004 8.74054 14.9004 9.34579V11.9092C14.9004 12.4255 14.927 12.915 14.9801 13.3778C15.0332 13.8407 15.1483 14.2145 15.3254 14.4993C15.5201 14.7842 15.83 14.9266 16.255 14.9266C16.7331 14.9266 17.1226 14.7486 17.4236 14.3925C17.7247 14.0365 17.9548 13.6004 18.1142 13.0841C18.2736 12.5501 18.3798 12.016 18.4329 11.482C18.4861 10.9479 18.5126 10.494 18.5126 10.1202C18.5126 8.46462 18.1496 6.98709 17.4236 5.68758C16.7154 4.37027 15.7149 3.33778 14.4223 2.59012C13.1474 1.82466 11.6689 1.44192 9.98672 1.44192C8.32227 1.44192 6.85259 1.80685 5.57769 2.53672C4.30279 3.26658 3.30235 4.28126 2.57636 5.58077C1.85038 6.86248 1.48738 8.32221 1.48738 9.95995C1.48738 11.5443 1.82382 12.9951 2.49668 14.3124C3.18725 15.6119 4.14343 16.6444 5.36521 17.4099C6.60469 18.1753 8.04781 18.5581 9.69456 18.5581C10.5268 18.5581 11.2616 18.4602 11.8991 18.2644C12.5365 18.0685 13.1828 17.8282 13.838 17.5434L14.2629 18.9319C13.537 19.2879 12.7756 19.555 11.9788 19.733C11.1996 19.911 10.4205 20 9.64143 20C8.31341 20 7.06507 19.7597 5.89641 19.279C4.74546 18.7984 3.72731 18.113 2.84197 17.223C1.95662 16.3329 1.25719 15.2737 0.743692 14.0454C0.247897 12.8171 0 11.4553 0 9.95995C0 8.37561 0.274458 6.96929 0.823373 5.74099C1.37229 4.51268 2.11598 3.4713 3.05445 2.61682C3.99292 1.76235 5.06419 1.11259 6.26826 0.667558C7.49004 0.222519 8.76494 0 10.093 0ZM11.3944 13.7784C11.8725 13.547 12.2178 13.2621 12.4303 12.9239C12.6428 12.5679 12.749 12.194 12.749 11.8024V10.7877C12.5011 10.7165 12.1027 10.6097 11.5538 10.4673C11.0226 10.3071 10.4294 10.227 9.77424 10.227C8.94201 10.227 8.26029 10.3961 7.72908 10.7343C7.19788 11.0547 6.93227 11.5888 6.93227 12.3364C6.93227 12.9417 7.11819 13.4223 7.49004 13.7784C7.87959 14.1344 8.4108 14.3124 9.08367 14.3124C9.4378 14.3124 9.82736 14.2679 10.2523 14.1789C10.6773 14.0899 11.058 13.9564 11.3944 13.7784Z" fill="#45916A"/>
</svg>
