<svg width="12" height="6" viewBox="0 0 12 6" fill="none" xmlns="http://www.w3.org/2000/svg">
<path d="M0.00154682 0.851444C0.00115678 0.652852 0.0707531 0.460393 0.198255 0.307477C0.270051 0.221412 0.358229 0.15027 0.457734 0.0981241C0.55724 0.045978 0.666118 0.0138531 0.778135 0.0035892C0.890152 -0.00667466 1.00311 0.00512436 1.11053 0.0383102C1.21795 0.071496 1.31773 0.125416 1.40415 0.196983L5.98827 4.00476L10.5809 0.332976C10.6684 0.262374 10.7691 0.209651 10.8771 0.177836C10.9852 0.146021 11.0985 0.135741 11.2106 0.147589C11.3226 0.159437 11.4312 0.193177 11.5301 0.246871C11.629 0.300566 11.7163 0.373156 11.7868 0.460468C11.8647 0.548409 11.9234 0.651394 11.9593 0.76296C11.9952 0.874526 12.0076 0.992266 11.9955 1.10879C11.9835 1.22531 11.9473 1.3381 11.8893 1.44008C11.8313 1.54206 11.7528 1.63102 11.6586 1.70139L6.52708 5.80665C6.37404 5.93166 6.18209 6 5.98399 6C5.7859 6 5.59394 5.93166 5.44091 5.80665L0.309437 1.5569C0.205937 1.47164 0.124121 1.36333 0.0706262 1.24075C0.0171318 1.11818 -0.00653557 0.984806 0.00154682 0.851444Z" fill="white"/>
</svg>
