<svg width="5" height="11" viewBox="0 0 5 11" fill="none" xmlns="http://www.w3.org/2000/svg">
<path d="M0.317276 0.0464508C0.378121 0.0156644 0.442931 0 0.508108 0C0.573284 0 0.638095 0.0156644 0.69894 0.0464508C0.75981 0.0772503 0.815844 0.122758 0.863547 0.18103L4.84692 5.04693C5.05103 5.29627 5.05103 5.70329 4.84692 5.95262L0.863293 10.8188C0.815655 10.8771 0.759669 10.9227 0.698838 10.9535C0.638033 10.9843 0.573253 11 0.508108 11C0.442962 11 0.378183 10.9843 0.317378 10.9535C0.257177 10.923 0.201722 10.8781 0.154407 10.8206C-0.0476995 10.5652 -0.047105 10.1463 0.152668 9.90223L3.76099 5.49448L0.152668 1.08672C0.104943 1.02842 0.0665259 0.958508 0.0401265 0.880654C0.0137204 0.802779 0 0.718886 0 0.633874C0 0.548862 0.0137204 0.464969 0.0401265 0.387094C0.0665259 0.30924 0.104943 0.239329 0.152668 0.18103C0.200371 0.122758 0.256406 0.0772503 0.317276 0.0464508Z" fill="white"/>
</svg>
