<svg width="20" height="20" viewBox="0 0 20 20" fill="none" xmlns="http://www.w3.org/2000/svg">
<path d="M19.1251 3.1671L16.4629 0.507437C16.138 0.182477 15.703 0 15.2431 0C14.7832 0 14.3482 0.179978 14.0232 0.507437L11.1561 3.36958C10.8311 3.69454 10.6487 4.13198 10.6487 4.59193C10.6487 5.05437 10.8286 5.48681 11.1561 5.81427L13.3958 8.05649C12.8856 9.24531 12.1525 10.3255 11.2361 11.2386C10.3187 12.161 9.24634 12.8884 8.05649 13.4033L5.81677 11.1611C5.49181 10.8361 5.05687 10.6537 4.59693 10.6537C4.37006 10.6528 4.14531 10.6973 3.93585 10.7844C3.72638 10.8715 3.53641 10.9996 3.37708 11.1611L0.507437 14.0232C0.182477 14.3482 0 14.7857 0 15.2456C0 15.708 0.179978 16.1405 0.507437 16.4679L3.1671 19.1276C3.72203 19.6825 4.48694 20 5.27184 20C5.43432 20 5.5918 19.9875 5.75178 19.96C9.06137 19.4151 12.346 17.6528 14.9981 15.0031C17.6478 12.3485 19.4076 9.06387 19.9575 5.75178C20.115 4.8119 19.8 3.84452 19.1251 3.1671ZM18.1852 5.45432C17.6978 8.40145 16.113 11.3411 13.7258 13.7283C11.3386 16.1155 8.40145 17.7003 5.45432 18.1877C5.08436 18.2502 4.70441 18.1252 4.43445 17.8578L1.82227 15.2456L4.59193 12.4734L7.58655 15.4731L7.60905 15.4956L8.14898 15.2956C9.7861 14.6937 11.2728 13.743 12.5059 12.5094C13.7391 11.2758 14.6893 9.78881 15.2906 8.15148L15.4906 7.61155L12.4709 4.59443L15.2406 1.82227L17.8528 4.43445C18.1227 4.70441 18.2477 5.08436 18.1852 5.45432Z" fill="#45916A"/>
</svg>
