<svg width="16" height="8" viewBox="0 0 16 8" fill="none" xmlns="http://www.w3.org/2000/svg">
<path d="M15.9324 0.507764C15.9772 0.605115 16 0.708812 16 0.813095C16 0.917377 15.9772 1.02107 15.9324 1.11843C15.8876 1.21582 15.8214 1.30547 15.7367 1.3818L8.65901 7.75519C8.29634 8.08177 7.70431 8.08177 7.34164 7.75519L0.263517 1.38139C0.1787 1.30517 0.112455 1.21559 0.0676202 1.11826C0.0228042 1.02097 -9.11222e-08 0.917326 -8.07669e-08 0.813093C-7.04116e-08 0.70886 0.0228042 0.605213 0.0676202 0.507925C0.111991 0.411604 0.17733 0.322875 0.260886 0.247172C0.632373 -0.0761987 1.24179 -0.0752474 1.59675 0.24439L8.00803 6.0177L14.4193 0.244391C14.5041 0.168031 14.6058 0.106563 14.719 0.0643244C14.8323 0.0220747 14.9543 0.000121966 15.078 0.000121979C15.2017 0.000121991 15.3237 0.0220747 15.437 0.0643245C15.5502 0.106563 15.6519 0.168031 15.7367 0.244391C15.8214 0.320716 15.8876 0.410371 15.9324 0.507764Z" fill="white"/>
</svg>
